<svg width="434" height="434" viewBox="0 0 434 434" fill="none" xmlns="http://www.w3.org/2000/svg">
<circle cx="216.855" cy="216.855" r="209.355" stroke="#E2FF6D" stroke-width="15"/>
<path d="M130.444 309.52C128.745 309.52 127.279 308.902 126.044 307.667C124.809 306.432 124.191 304.965 124.191 303.267V209.485C124.191 207.787 124.809 206.32 126.044 205.085C127.279 203.85 128.745 203.233 130.444 203.233H161.473C163.325 203.233 164.483 202.461 164.946 200.917C165.101 200.609 165.178 200.145 165.178 199.528C165.178 198.447 164.869 197.598 164.252 196.981C159.62 192.504 154.603 187.564 149.2 182.161C143.797 176.603 138.548 171.355 133.454 166.415L126.044 158.773C124.809 157.538 124.191 156.072 124.191 154.373V130.523C124.191 128.825 124.809 127.358 126.044 126.123C127.279 124.888 128.745 124.271 130.444 124.271H154.294C155.992 124.271 157.459 124.888 158.694 126.123L256.876 224.073C257.648 224.845 258.497 225.231 259.423 225.231C260.504 225.231 261.353 224.845 261.97 224.073C262.742 223.302 263.128 222.452 263.128 221.526V187.254C263.128 185.556 263.039 177.682 263.039 177.682C263.039 177.682 262.719 174.55 264.676 172.629C266.455 170.778 268.468 170.565 269.373 170.565H301.897V170.565C306.063 170.565 309.44 173.942 309.44 178.109V185.332V224.305C309.44 226.003 308.823 227.47 307.588 228.705C306.353 229.94 304.886 230.557 303.188 230.557H272.159C270.307 230.557 269.149 231.329 268.686 232.873C268.531 233.181 268.454 233.645 268.454 234.262C268.454 235.343 268.763 236.192 269.38 236.809C274.012 241.286 279.029 246.303 284.432 251.861C289.835 257.264 295.084 262.435 300.178 267.375L307.588 275.017C308.823 276.252 309.44 277.718 309.44 279.417V303.267C309.44 304.965 308.823 306.432 307.588 307.667C306.353 308.902 304.886 309.52 303.188 309.52H279.337C277.639 309.52 276.173 308.902 274.938 307.667L176.756 209.717C175.984 208.945 175.135 208.559 174.209 208.559C173.128 208.559 172.202 208.945 171.43 209.717C170.812 210.488 170.504 211.338 170.504 212.264V303.267C170.504 304.965 169.886 306.432 168.651 307.667C167.416 308.902 165.95 309.52 164.252 309.52H130.444Z" fill="#E2FF6D"/>
</svg>
